<svg preserveAspectRatio="xMidYMid meet" overflow="visible" style="display: block;" viewBox="0 0 515.683 457.63" fill="none" xmlns="http://www.w3.org/2000/svg">
<path id="Outline" d="M241.836 69.2942C261.651 46.2251 275.457 30.9943 301.991 16.6243C382.476 -26.964 486.473 19.1997 508.287 108.061C509.019 111.041 515.08 141.056 514.704 140.336L515.683 140.7C515.211 144.349 514.379 149.598 514.246 153.133C512.58 142.51 511.751 132.253 509.66 121.638C502.519 85.3809 485.472 52.6779 455.195 30.7375C395.052 -12.8457 316.233 -6.92388 264.408 46.6772C256.721 54.6272 249.577 63.4689 242.001 71.3598C230.421 64.6415 219.188 57.8127 207.093 51.9472C137.814 18.3527 58.4008 44.1844 19.3638 109.943C-2.80508 147.287 -1.6007 192.709 8.83879 233.638C27.5554 303.583 84.2457 357.703 145.455 392.681C193.635 420.22 248.677 440.598 301.838 456.799C311.528 452.871 331.683 436.933 341.182 430.087C419.421 373.714 494.922 294.47 511.435 195.863C512.646 188.633 512.785 159.713 514.246 153.133C514.404 158.016 514.689 180.172 515.322 185.01C514.401 187.484 511.203 206.746 510.194 211.268C505.688 230.625 498.935 249.391 490.073 267.179C454.47 338.81 400.454 389.44 336.412 435.602C328.343 441.417 312.911 453.084 304.16 457.311C300.197 459.228 281.055 451.957 275.649 450.143C236.487 437.036 196.404 421.851 159.846 402.57C93.3609 367.512 30.7276 313.268 8.74738 238.938C-3.38058 197.925 -4.74877 149.942 16.5916 111.527C34.6348 79.0473 68.3335 51.275 104.292 41.0333C138.753 31.2188 175.326 35.4276 207.631 50.3673C219.653 55.9263 230.346 62.8516 241.836 69.2942Z" fill="var(--fill-0, #DC6D6D)"/>
</svg>
