<svg preserveAspectRatio="xMidYMid meet" overflow="visible" style="display: block;" viewBox="0 0 554.32 522.644" fill="none" xmlns="http://www.w3.org/2000/svg">
<path id="Main part right" d="M165.132 5.9619C145.483 -5.22994 124.305 -1.19527 118.824 22.5862C93.8165 5.75346 63.192 8.492 61.9656 43.7959C58.5682 42.4559 55.1649 40.9974 51.532 40.6346C28.3883 38.3225 2.90168 58.1345 18.8651 82.1208C10.1646 81.6885 8.21645 81.9774 0 84.7686V308.706C2.42079 308.736 4.8413 308.816 7.2973 308.878C0.00516367 342.773 4.08853 358.616 41.3317 362.193C37.5437 380.874 43.2197 399.021 64.0731 403.739C70.5002 405.187 75.8823 404.141 82.3357 403.073C81.0852 408.208 80.6852 413.511 81.151 418.777C82.3993 431.929 89.9371 442.995 102.649 447.245C109.869 449.659 115.676 448.883 123.006 448.079C113.284 480.555 138.017 494.994 168.306 491.417C171.787 491.007 175.896 489.618 179.289 488.623C179.728 494.153 179.925 498.622 181.812 503.742C190.989 528.684 225.095 527.514 239.801 508.584C242.361 505.293 243.56 502.608 245.227 498.834C254.624 505.805 264.869 511.012 276.737 511.239C300.576 511.693 310.397 500.114 311.37 477.732C339.479 492.821 359.414 476.825 364.006 447.64C390.192 462.145 411.772 451.246 415.304 421.469C450.236 428.959 462.624 416.144 463.925 381.415C501.359 389.424 508.818 356.253 501.973 326.557L504.035 326.366C528.737 324.223 529.52 297.577 523.399 279.261C552.386 268.048 552.386 246.103 534.273 223.936C559.794 219.766 557.154 197.288 547.158 179.277C541.644 169.333 533.754 164.582 522.807 161.937C549.322 142.53 523.399 109.298 494.404 112.481C503.318 78.7788 475.706 65.2558 446.777 74.4033C446.887 72.0663 447.319 65.503 446.719 63.6422C438.492 38.2399 405.125 36.0389 391.362 57.6334C390.536 55.9342 389.651 54.2629 388.708 52.623C376.43 31.5311 340.993 25.0658 333.198 55.6271C315.084 35.3719 294.712 41.184 282.185 63.3029L278.719 62.5407C274.141 37.9934 255.494 26.1279 232.796 39.7291C232.913 31.7849 232.43 24.0213 226.178 18.5552C210.836 5.13613 189.754 10.1429 177.425 23.4149L176.788 24.1083C175.428 17.0272 171.45 9.55696 165.132 5.9619Z" fill="var(--fill-0, #C13336)"/>
</svg>
