<svg preserveAspectRatio="xMidYMid meet" overflow="visible" style="display: block;" viewBox="0 0 582.816 522.715" fill="none" xmlns="http://www.w3.org/2000/svg">
<path id="Vector" d="M513.284 362.361C549.467 357.957 555.362 343.562 546.996 308.892C573.5 313.5 598.5 267 557.5 256.5C592 240.5 590.5 188.5 557.5 191C593.5 157 588 129.5 546.996 129.5C584 115.5 557.5 74 535.536 82.1958C536.468 80.6832 538.973 76.8241 539.339 75.3209C546.041 47.8193 513.929 33.9109 492.446 44.0831C491.371 8.08723 459.711 5.91485 434.99 23.027C431.799 -9.26483 384.723 -6.44439 377.396 24.2997C374.827 21.0068 372.121 17.9003 368.404 15.9795C346.128 4.46951 321.363 11.6472 321.431 39.4662C293.966 25.5658 277.801 41.1705 274.831 68.8096C262.953 43.8849 243.427 32.9534 221.558 55.343C220.28 51.9213 218.597 46.6205 216.148 44.0502C197.562 24.5462 172.774 38.3625 163.186 57.8314C146.936 31.729 103.216 41.9231 107.877 74.4944C79.4167 66.6036 49.8123 78.0302 60.0697 112.245L59.8795 112.235C56.8254 112.075 53.6323 111.907 50.5977 112.292C36.2167 114.115 21.024 128.023 20.4555 143.081C20.2267 148.681 22.4065 154.112 26.4438 158C27.826 159.342 29.7747 160.693 31.3972 161.817L31.5564 161.927C20.6949 164.534 12.5303 169.723 7.06045 179.58C-2.77831 197.311 -5.49451 220.188 20.0736 223.845C8.43997 239.04 1.92348 253.358 14.8473 270.443L18.8931 273.636C22.5089 276.182 27.0752 277.82 31.1973 279.276C23.8387 299.171 26.1232 324.896 52.3557 326.571L52.3359 326.655C51.3249 330.974 50.2836 335.421 50.1158 339.839C49.0101 369.009 60.0529 387.178 90.3315 381.561C92.9465 416.524 103.115 428.922 138.912 421.527C143.091 451.612 163.505 461.632 190.334 447.925C194.598 477.198 215.272 492.448 242.983 477.783C244.433 511.224 270.039 517.997 298.825 505.6C302.263 504.115 305.768 501.299 308.805 499.046C310.9 503.12 312.599 506.543 315.698 509.952C322.713 517.588 332.451 522.152 342.805 522.664C365.178 523.71 374.153 508.364 374.875 488.242C395.954 496.383 428.525 492.799 433.641 465.743C434.734 459.965 433.023 453.689 431.484 448.13C462.503 452.416 477.138 433.157 472.411 403.431C502.699 407.432 517.69 392.876 513.284 362.361Z" fill="var(--fill-0, #C13336)"/>
</svg>
