<svg preserveAspectRatio="xMidYMid meet" overflow="visible" style="display: block;" viewBox="0 0 514.903 457.192" fill="none" xmlns="http://www.w3.org/2000/svg">
<path id="Vector" d="M1.43695 140.131C7.35797 96.4071 22.068 57.7904 58.3093 30.5616C87.7638 8.43172 129.526 -4.42779 166.077 1.40183C216.007 9.3658 242.428 33.4274 273.645 69.9046C292.79 58.2622 307.605 49.291 329.228 42.4125C393.47 21.9766 460.212 50.0875 495.356 106.586C518.186 143.28 518.64 188.738 508.819 229.75C491.298 302.013 434.106 356.564 372.505 393.999C339.327 414.158 301.989 429.379 265.25 442.048L262.925 442.853C253.821 444.688 215.313 460.612 209.441 456.523C114.562 390.459 15.8991 306.204 1.07569 184.441C0.442419 179.603 0.18866 176.387 0.0307073 171.504C0.201822 165.226 0.0658135 158.852 0 152.564C0.132358 149.029 0.964553 143.781 1.43695 140.131Z" fill="var(--fill-0, #F1E4D3)"/>
</svg>
